<svg xmlns="http://www.w3.org/2000/svg" viewBox="0 0 46.08 46.08"><defs><style>.cls-1,.cls-2{fill:#fff;}.cls-1{opacity:0.3;}.cls-3{fill:none;}</style></defs><title>recycleReuse</title><g id="Layer_2" data-name="Layer 2"><g id="Layer_1-2" data-name="Layer 1"><path class="cls-1" d="M41.9,16.22a20,20,0,0,0-37.45-.48l10.83-3,3.66,8.88a6.69,6.69,0,0,1,8.9.54l-4.35.07,13.68,3.93,7.18-11.76Z"/><path class="cls-1" d="M18.23,39.14l3.18-5.71a6.75,6.75,0,0,1-5.07-6.53,6.62,6.62,0,0,1,1-3.52l.08,0,2.26,2.7-5-12.19L.61,17.75l3.05.45A20.3,20.3,0,0,0,3.06,23a20,20,0,0,0,19.67,20Z"/><path class="cls-2" d="M43.12,23A20.11,20.11,0,0,0,42.71,19l-5.09,8.33-8.08-2.38a6.73,6.73,0,0,1-5.83,8.69L24.44,30l-4.94,9L27,45.74l-1.6-2.84A20,20,0,0,0,43.12,23Z"/><circle class="cls-3" cx="23.04" cy="23.04" r="23.04"/></g></g></svg>