<svg xmlns="http://www.w3.org/2000/svg" viewBox="0 0 42.42 42.42"><defs><style>.cls-1{fill:none;}.cls-2{fill:#fff;}</style></defs><g id="Layer_2" data-name="Layer 2"><g id="Layer_1-2" data-name="Layer 1"><circle class="cls-1" cx="21.21" cy="21.21" r="21.21"/><path class="cls-2" d="M42,19.33l-3.28-4.47A1.1,1.1,0,0,0,37,15l-3.32,4.42a1.11,1.11,0,0,0,1,1.75l1.85,0v.07A15.29,15.29,0,0,1,22.56,36.43a1.49,1.49,0,0,0-1.35,1.49,1.51,1.51,0,0,0,1.63,1.5A18.31,18.31,0,0,0,39.49,21.21v-.05h1.74A1.12,1.12,0,0,0,42,19.33Z"/><path class="cls-2" d="M9.22,4.16,7,9.25a1.12,1.12,0,0,0,1,1.47l5.49.64a1.12,1.12,0,0,0,1-1.74L13.55,8l.06,0a15.3,15.3,0,0,1,20.17,4.36,1.49,1.49,0,0,0,2,.42,1.51,1.51,0,0,0,.47-2.17A18.31,18.31,0,0,0,12.1,5.38l0,0L11.19,3.9A1.11,1.11,0,0,0,9.22,4.16Z"/><path class="cls-2" d="M12.84,40.26l5.5-.71A1.11,1.11,0,0,0,19.11,38l-2.27-5a1.11,1.11,0,0,0-2,0l-.91,1.61-.06,0A15.31,15.31,0,0,1,7.27,15a1.48,1.48,0,0,0-.64-1.9,1.51,1.51,0,0,0-2.11.7,18.31,18.31,0,0,0,7.89,23.38l0,0L11.6,38.7A1.12,1.12,0,0,0,12.84,40.26Z"/></g></g></svg>