<svg xmlns="http://www.w3.org/2000/svg" viewBox="0 0 43.48 41.88"><defs><style>.cls-1{fill:#fff;}</style></defs><title>recycleLogo</title><g id="Layer_2" data-name="Layer 2"><g id="Layer_1-2" data-name="Layer 1"><path class="cls-1" d="M41,13.22a20,20,0,0,0-37.45-.48l10.83-3,3.66,8.87a6.72,6.72,0,0,1,8.91.55l-3.85.12,13.17,3.88,7.19-11.76Z"/><path class="cls-1" d="M17.35,36.13l3.18-5.7a6.71,6.71,0,0,1-4.05-10.06l.08,0,2.06,2.16-4.8-11.65L0,14.77l2.78.42A20.3,20.3,0,0,0,2.18,20a20,20,0,0,0,19.67,20Z"/><path class="cls-1" d="M42.24,20A20,20,0,0,0,41.83,16L36.74,24.3l-8.08-2.38a6.83,6.83,0,0,1,.3,2,6.74,6.74,0,0,1-6.13,6.71l0-2.32-4.25,7.62,6.86,6-1-2A20,20,0,0,0,42.24,20Z"/></g></g></svg>