<svg xmlns="http://www.w3.org/2000/svg" viewBox="0 0 79.65 7.7"><defs><style>.cls-1{fill:#fff;}</style></defs><g id="Layer_2" data-name="Layer 2"><g id="Layer_1-2" data-name="Layer 1"><path class="cls-1" d="M4.61,5.56C4.61,4.43,4,4,2.93,3.36S1.42,2.43,1.42,1.87,1.87,1,2.49,1a3.3,3.3,0,0,1,1.19.29c.41,0,.6-.45.61-.75A2.78,2.78,0,0,0,2.55,0C.56,0,0,1.31,0,2.12S.23,3.61,1.63,4.37c1.21.66,1.49,1,1.49,1.48A.8.8,0,0,1,3,6.32l1.4.25A2.15,2.15,0,0,0,4.61,5.56Z"/><path class="cls-1" d="M10.43,6.8v0a.75.75,0,0,1-.21,0c-.27,0-.43-.16-.43-.32,0-.77.05-1.69.05-2.18a1.88,1.88,0,0,0-2-2A4,4,0,0,0,5.72,3c0,.36.17.8.66.65A2.51,2.51,0,0,1,7.5,3.33a.86.86,0,0,1,.93.92v.2c-.14,0-.39.07-.61.12C7,4.76,5.54,5.1,5.54,6.33a1.43,1.43,0,0,0,.07.43c1.51.23,3.08.41,4.71.55A1.13,1.13,0,0,0,10.43,6.8Zm-2-.73a.58.58,0,0,1-.11.41.9.9,0,0,1-.68.31.67.67,0,0,1-.71-.67c0-.4.46-.78,1.5-.91Z"/><path class="cls-1" d="M14.1,7.39c.5-1.26,1.19-2.89,1.69-4.15.17-.42.23-.69,0-.79a2,2,0,0,0-.92-.2c-.3,1-.85,2.48-1.33,3.85-.43-1.42-.9-2.77-1.19-3.57A.32.32,0,0,0,12,2.25a3.63,3.63,0,0,0-1.22.29c.19.45.38.91.62,1.55.49,1.29.9,2.34,1.27,3.4l1.3.07A.37.37,0,0,0,14.1,7.39Z"/><path class="cls-1" d="M20.36,7.6A1.4,1.4,0,0,0,21,6.49l0,0a3.51,3.51,0,0,1-1.34.28A1.5,1.5,0,0,1,18,5.24a16.17,16.17,0,0,0,2.19,0c.49-.12.95-.3,1-.48a1.79,1.79,0,0,0,0-.39,2,2,0,0,0-2.12-2.07A2.66,2.66,0,0,0,16.54,5.1,2.38,2.38,0,0,0,18.3,7.69c.58,0,1.16,0,1.75,0A1.61,1.61,0,0,0,20.36,7.6ZM19,3.09c.6,0,.87.48.87,1.07,0,.13-.07.25-.16.25a13.67,13.67,0,0,1-1.7,0C18.05,3.51,18.53,3.09,19,3.09Z"/><path class="cls-1" d="M30,5a2.52,2.52,0,0,0-2.64-2.72,2.71,2.71,0,0,0-2.77,2.84A2.57,2.57,0,0,0,26,7.55c.94,0,1.87-.1,2.8-.17A2.77,2.77,0,0,0,30,5Zm-2.63,2c-.68,0-1.25-.63-1.25-2,0-1,.39-1.8,1.12-1.8.89,0,1.25,1,1.25,2S28.13,6.93,27.39,6.93Z"/><path class="cls-1" d="M36.07,6.64a1.39,1.39,0,0,1,0-.32V4.49c0-1.06,0-1.91,0-2.16a11.86,11.86,0,0,0-1.24.07c-.21.06-.25.12-.25.47V6.33a1.32,1.32,0,0,1-.9.37c-.43,0-1-.18-1-1.1V3.07c0-.68-.05-.74-.22-.74a7.27,7.27,0,0,0-1.28.14c0,.23.05.59.05,1.33v2a2.39,2.39,0,0,0,.36,1.36c1.5-.14,3-.31,4.4-.5Z"/><path class="cls-1" d="M39.24,4.85a1.52,1.52,0,0,1,.09-.6.9.9,0,0,1,.75-.65,1.31,1.31,0,0,1,.47.07A.35.35,0,0,0,41,3.54a2,2,0,0,0,.32-1,.93.93,0,0,0-.67-.28c-.63,0-1.13.42-1.49,1.24,0-.74-.22-1.24-.74-1.24a1.14,1.14,0,0,0-.89.62v0a.68.68,0,0,1,.28.63v2c0,.31,0,.59,0,.87l1.47-.16Z"/><path class="cls-1" d="M46,3.85c0-2,1-2.91,2.16-2.91,1.5,0,2.36,1.33,2.36,3a4.2,4.2,0,0,1-.31,1.7l1.54,0a4.44,4.44,0,0,0,.37-1.79A3.67,3.67,0,0,0,48.32,0a3.74,3.74,0,0,0-3.9,4,4.26,4.26,0,0,0,.43,1.87l1.66-.08A3.74,3.74,0,0,1,46,3.85Z"/><path class="cls-1" d="M54.8,5.64A2.32,2.32,0,0,1,54.69,5a1.52,1.52,0,0,1,1.54-1.69,3.1,3.1,0,0,1,1,.19c.42,0,.58-.43.58-.74a2.56,2.56,0,0,0-1.6-.46,2.85,2.85,0,0,0-3,2.91,3.73,3.73,0,0,0,0,.48Z"/><path class="cls-1" d="M59.88,5.24a16.11,16.11,0,0,0,2.19,0c.49-.12,1-.3,1-.48a1.79,1.79,0,0,0,0-.39A2,2,0,0,0,61,2.25,2.66,2.66,0,0,0,58.43,5.1a3.73,3.73,0,0,0,0,.59l1.5,0A2.37,2.37,0,0,1,59.88,5.24Zm1-2.15c.6,0,.86.48.86,1.07,0,.13-.07.25-.16.25a13.66,13.66,0,0,1-1.7,0C59.94,3.51,60.42,3.09,60.89,3.09Z"/><path class="cls-1" d="M66.74,5.21v.84l1.37.09c0-.69,0-1.43,0-1.86a1.88,1.88,0,0,0-2-2A4,4,0,0,0,64,3c0,.36.17.8.66.65a2.51,2.51,0,0,1,1.12-.35.86.86,0,0,1,.93.92v.2c-.14,0-.39.07-.61.12-.73.17-1.9.44-2.2,1.31L65.29,6C65.4,5.62,65.84,5.32,66.74,5.21Z"/><path class="cls-1" d="M71.37,3.79a1.49,1.49,0,0,1,1-.44c.54,0,.91.39.91,1.09V6.63l1.47.19c0-.28,0-.57,0-.86V4.45c0-.94-.27-2.2-1.79-2.2a2.68,2.68,0,0,0-1.68.8c-.06-.36-.24-.8-.71-.8a1.08,1.08,0,0,0-.89.62v.07c.18.12.22.3.22.66v2c0,.26,0,.49,0,.73l1.47.14Z"/><path class="cls-1" d="M79.65,6.06a1.42,1.42,0,0,0-.84-1.32c-.26-.15-.74-.36-1-.49s-.44-.29-.44-.54.25-.48.62-.48a2.14,2.14,0,0,1,.83.19c.4,0,.56-.45.54-.76A2.16,2.16,0,0,0,78,2.25a1.78,1.78,0,0,0-2,1.68,1.54,1.54,0,0,0,.84,1.37c.31.17.62.31.92.48s.47.34.47.55-.25.51-.7.51a2.59,2.59,0,0,1-1.35-.45A.94.94,0,0,0,76,7c1,.15,2,.32,2.84.5A1.59,1.59,0,0,0,79.65,6.06Z"/></g></g></svg>