<svg xmlns="http://www.w3.org/2000/svg" viewBox="0 0 88.74 17.77"><defs><style>.cls-1{fill:#57a1d8;}.cls-2{fill:#fff;}</style></defs><g id="Layer_2" data-name="Layer 2"><g id="Layer_1-2" data-name="Layer 1"><rect class="cls-1" width="88.74" height="17.77"/><path class="cls-2" d="M9.45,9.94c0-1.14-.6-1.6-1.68-2.21S6.26,6.81,6.26,6.24s.45-.82,1.08-.82a3.25,3.25,0,0,1,1.18.28c.41,0,.6-.45.62-.75A2.89,2.89,0,0,0,7.4,4.37c-2,0-2.56,1.31-2.56,2.13S5.07,8,6.47,8.74C7.68,9.4,8,9.7,8,10.23a.86.86,0,0,1-.14.46l1.39.25A2.14,2.14,0,0,0,9.45,9.94Z"/><path class="cls-2" d="M15.27,11.17v0h-.21c-.27,0-.43-.16-.43-.31,0-.78,0-1.69,0-2.19a1.88,1.88,0,0,0-2-2,4,4,0,0,0-2.15.78c0,.36.16.79.66.64a2.42,2.42,0,0,1,1.11-.34.87.87,0,0,1,.94.91v.2c-.15,0-.4.07-.62.12-.84.19-2.27.53-2.27,1.77a1.54,1.54,0,0,0,.06.43q2.27.33,4.71.54A1.13,1.13,0,0,0,15.27,11.17Zm-2-.73a.6.6,0,0,1-.1.41.89.89,0,0,1-.69.31.67.67,0,0,1-.71-.67c0-.4.46-.78,1.5-.91Z"/><path class="cls-2" d="M18.94,11.76c.5-1.26,1.19-2.89,1.69-4.15.17-.42.23-.68,0-.79a2.17,2.17,0,0,0-.92-.19c-.29,1-.85,2.47-1.33,3.85-.43-1.43-.9-2.77-1.18-3.58a.33.33,0,0,0-.33-.27,3.46,3.46,0,0,0-1.22.29c.19.44.38.91.62,1.54.49,1.3.9,2.34,1.27,3.4l1.3.08A.47.47,0,0,0,18.94,11.76Z"/><path class="cls-2" d="M25.2,12a1.44,1.44,0,0,0,.63-1.12l0,0a3.7,3.7,0,0,1-1.34.27,1.5,1.5,0,0,1-1.63-1.5,16.38,16.38,0,0,0,2.19,0c.49-.12.95-.3,1-.48A2.06,2.06,0,0,0,24,6.63a2.65,2.65,0,0,0-2.58,2.84,2.4,2.4,0,0,0,1.76,2.6h1.75A2.88,2.88,0,0,0,25.2,12ZM23.84,7.47c.6,0,.86.48.86,1.06,0,.14-.07.26-.16.26-.28,0-1.21,0-1.7,0C22.89,7.89,23.37,7.47,23.84,7.47Z"/><path class="cls-2" d="M34.86,9.34a2.51,2.51,0,0,0-2.64-2.71,2.71,2.71,0,0,0-2.77,2.83,2.56,2.56,0,0,0,1.42,2.46c.94-.05,1.87-.1,2.8-.17A2.77,2.77,0,0,0,34.86,9.34Zm-2.62,2c-.69,0-1.26-.63-1.26-2,0-1,.39-1.8,1.12-1.8.89,0,1.25.95,1.25,2S33,11.3,32.24,11.3Z"/><path class="cls-2" d="M40.91,11a1.25,1.25,0,0,1,0-.32V8.86c0-1.06,0-1.91,0-2.16a11.86,11.86,0,0,0-1.24.07c-.21.06-.25.12-.25.47v3.47a1.36,1.36,0,0,1-.9.37c-.43,0-1-.18-1-1.11V7.44c0-.68,0-.74-.22-.74A7.27,7.27,0,0,0,36,6.84c0,.23.05.59.05,1.33v2a2.31,2.31,0,0,0,.37,1.35c1.49-.14,3-.31,4.4-.5Z"/><path class="cls-2" d="M44.08,9.22a1.35,1.35,0,0,1,.1-.6A.88.88,0,0,1,44.92,8a1.31,1.31,0,0,1,.47.07.35.35,0,0,0,.42-.13,2,2,0,0,0,.32-1,.93.93,0,0,0-.67-.27c-.62,0-1.13.42-1.49,1.23,0-.74-.21-1.23-.74-1.23a1.13,1.13,0,0,0-.89.61v0a.67.67,0,0,1,.28.62v2c0,.3,0,.58,0,.86l1.47-.15Z"/><path class="cls-2" d="M50.88,8.22c0-2,1-2.91,2.16-2.91,1.5,0,2.37,1.33,2.37,3a4.19,4.19,0,0,1-.32,1.7l1.54,0A4.44,4.44,0,0,0,57,8.23a3.67,3.67,0,0,0-3.84-3.86,3.75,3.75,0,0,0-3.9,4,4.44,4.44,0,0,0,.43,1.87l1.66-.08A3.81,3.81,0,0,1,50.88,8.22Z"/><path class="cls-2" d="M59.65,10a2,2,0,0,1-.11-.68,1.52,1.52,0,0,1,1.53-1.7,2.8,2.8,0,0,1,1,.2c.42,0,.58-.43.58-.75A2.55,2.55,0,0,0,61,6.63a2.84,2.84,0,0,0-3,2.9,3.58,3.58,0,0,0,0,.48Z"/><path class="cls-2" d="M64.72,9.61a16.38,16.38,0,0,0,2.19,0c.5-.12,1-.3,1-.48a1.45,1.45,0,0,0,0-.4,2,2,0,0,0-2.11-2.06,2.66,2.66,0,0,0-2.58,2.84,3.73,3.73,0,0,0,0,.59l1.51,0A1.77,1.77,0,0,1,64.72,9.61Zm1-2.14c.6,0,.86.48.86,1.06,0,.14-.07.26-.16.26-.28,0-1.21,0-1.7,0C64.78,7.89,65.26,7.47,65.73,7.47Z"/><path class="cls-2" d="M71.58,9.58v.84l1.37.1c0-.7,0-1.44,0-1.87a1.88,1.88,0,0,0-2-2,4,4,0,0,0-2.16.78c0,.36.17.79.66.64a2.51,2.51,0,0,1,1.12-.34.86.86,0,0,1,.93.91v.2c-.14,0-.39.07-.61.12-.72.17-1.9.44-2.2,1.32l1.35.07C70.24,10,70.68,9.69,71.58,9.58Z"/><path class="cls-2" d="M76.21,8.16a1.49,1.49,0,0,1,1-.44c.54,0,.92.39.92,1.09V11l1.46.18c0-.27,0-.57,0-.86V8.82c0-.93-.27-2.19-1.79-2.19a2.71,2.71,0,0,0-1.68.79c-.06-.36-.24-.79-.71-.79a1,1,0,0,0-.88.61v.07c.18.12.21.3.21.66v2.69l1.46.14Z"/><path class="cls-2" d="M84.49,10.43a1.42,1.42,0,0,0-.84-1.32c-.26-.14-.74-.36-1-.49s-.44-.29-.44-.54.25-.48.62-.48a2.14,2.14,0,0,1,.83.19c.41,0,.56-.44.54-.75a2.15,2.15,0,0,0-1.34-.41,1.77,1.77,0,0,0-2,1.68,1.54,1.54,0,0,0,.84,1.36l.92.48c.34.18.47.34.47.56s-.25.5-.7.5a2.71,2.71,0,0,1-1.35-.44.89.89,0,0,0-.28.59c1,.16,2,.32,2.84.5A1.56,1.56,0,0,0,84.49,10.43Z"/></g></g></svg>