<?xml version="1.0" encoding="utf-8"?>
<!-- Generator: Adobe Illustrator 23.0.4, SVG Export Plug-In . SVG Version: 6.00 Build 0)  -->
<svg version="1.1" id="Layer_1" xmlns="http://www.w3.org/2000/svg" xmlns:xlink="http://www.w3.org/1999/xlink" x="0px" y="0px"
	 viewBox="0 0 762.7 109.4" style="enable-background:new 0 0 762.7 109.4;" xml:space="preserve">
<style type="text/css">
	.st0{fill:#95D0F4;}
</style>
<g>
	<path class="st0" d="M58.4,70.4c0-10.4-5.5-14.6-15.4-20.2c-10.2-5.8-13.9-8.5-13.9-13.6c0-4.8,4.2-7.6,9.9-7.6
		c3.6,0,8.2,1.4,10.9,2.6c3.7,0.3,5.5-4.2,5.6-6.9c-2.9-2.9-10-5.3-15.9-5.3c-18.2,0-23.4,12-23.4,19.5c0,6.6,2.1,13.6,15,20.6
		c11.1,6,13.6,8.8,13.6,13.6c0,1.7-0.5,3.1-1.3,4.3c4.2,0.8,8.5,1.6,12.8,2.3C57.6,77,58.4,73.9,58.4,70.4"/>
	<path class="st0" d="M111.8,81.7v-0.3c-0.6,0.1-1.3,0.1-1.9,0.1c-2.5,0-4-1.4-4-2.9c0-7.2,0.4-15.5,0.4-20c0-12.1-8-18.6-17.9-18.6
		c-7.4,0-15.2,3.7-19.8,7.1c0,3.3,1.5,7.3,6,5.9C77.3,51.7,81.1,50,85,50c5.5,0,8.7,3.7,8.6,8.4v1.9c-1.3,0.3-3.6,0.7-5.6,1.1
		C80.2,63,67,66.1,67,77.5c0,1.4,0.2,2.7,0.6,4c13.8,2,28.3,3.7,43.2,5C111.4,85.1,111.8,83.6,111.8,81.7 M93.4,75
		c0,1.9-0.3,3-1,3.7c-1.4,1.5-3.3,2.9-6.3,2.9c-3.5,0-6.5-2.3-6.5-6.2c0-3.6,4.2-7.2,13.7-8.4V75z"/>
	<path class="st0" d="M145.4,87.1c4.6-11.6,10.9-26.5,15.5-38c1.5-3.8,2.1-6.3-0.2-7.2c-2.6-1.2-5.3-1.8-8.4-1.8
		c-2.7,8.9-7.8,22.6-12.2,35.3c-3.9-13.1-8.2-25.4-10.9-32.8c-0.4-1.5-1.3-2.5-3-2.5c-2.8,0-8.7,1.3-11.2,2.6
		c1.8,4.1,3.5,8.4,5.7,14.2c4.5,11.9,8.2,21.5,11.6,31.2c4,0.2,8,0.5,12,0.7C144.8,88.3,145.2,87.9,145.4,87.1"/>
	<path class="st0" d="M202.9,89.1c1.9-0.9,5.7-5.4,5.7-10.2l-0.2-0.2c-1.9,0.9-7,2.5-12.3,2.5c-7.5,0-14.4-4.1-15-13.7
		c5.9,0.2,17.4,0.1,20.1-0.4c4.5-1.1,8.7-2.8,9.2-4.4c0.2-0.9,0.3-2.1,0.3-3.6c-0.1-8.9-5.5-18.9-19.3-18.9
		c-14.9,0-23.6,12.8-23.6,26.1c0,12.9,5.8,21,16.2,23.8c5.3,0.1,10.6,0.1,16,0.1C201.2,89.7,202.3,89.4,202.9,89.1 M190.3,47.8
		c5.5,0,7.9,4.4,7.9,9.8c0,1.2-0.6,2.3-1.4,2.3c-2.6,0.2-11.1,0.3-15.6,0C181.6,51.6,186.1,47.8,190.3,47.8"/>
	<path class="st0" d="M291.4,64.9c0-13.6-8.2-24.8-24.2-24.8c-14.7,0-25.4,10.9-25.4,26c0,11,5.1,18.8,13,22.6
		c8.6-0.4,17.2-0.9,25.7-1.6C287.4,82.6,291.4,74.7,291.4,64.9 M267.4,83c-6.3,0-11.5-5.8-11.5-18.4c0-9.6,3.6-16.5,10.3-16.5
		c8.1,0,11.4,8.7,11.4,18C277.6,76.2,274,83,267.4,83"/>
	<path class="st0" d="M346.9,80.3c-0.2-0.8-0.4-1.7-0.4-2.9V60.5c0-9.7,0.3-17.5,0.3-19.8c-3.8,0-6.5,0.2-11.3,0.7
		c-2,0.5-2.3,1.1-2.3,4.3v31.8c-1.8,1.7-4.6,3.4-8.2,3.4c-4,0-9-1.6-9-10.1V47.6c0-6.3-0.4-6.8-2-6.8c-3,0-9.3,0.7-11.8,1.3
		c0.2,2.1,0.4,5.4,0.4,12.2v18.3c0,4.9,1.1,9.2,3.4,12.4c13.7-1.3,27.2-2.8,40.3-4.6C346.5,80.3,346.7,80.3,346.9,80.3"/>
	<path class="st0" d="M375.9,63.8c0-2.4,0.2-3.7,0.9-5.5c1.9-4.6,5.1-5.9,6.8-5.9c1.5,0,2.6,0.1,4.3,0.7s3,0,3.9-1.2
		c2-2.5,3-6.9,3-9.2c-1-1.2-3.4-2.5-6.2-2.5c-5.7,0-10.3,3.8-13.6,11.3c0-6.8-2-11.3-6.8-11.3c-3.1,0-7.2,3.1-8.1,5.6v0.4
		c1.9,1.1,2.5,3.2,2.5,5.7v18.6c0,2.8,0,5.4,0,7.9c4.4-0.5,8.9-1,13.4-1.4V63.8z"/>
	<path class="st0" d="M438.3,54.7c0-18,8.9-26.7,19.8-26.7c13.8,0,21.7,12.2,21.7,27.8c0,6.2-1,11.4-2.9,15.6
		c4.7-0.1,9.4-0.2,14.1-0.2c2.1-5,3.4-10.5,3.4-16.4c0-19.3-12.9-35.4-35.2-35.4c-22.4,0-35.7,15.8-35.7,36.6
		c0,5.8,1.3,11.7,3.9,17.1c5-0.3,10.1-0.5,15.2-0.7C440,67.9,438.3,62,438.3,54.7"/>
	<path class="st0" d="M518.6,71.1c-0.6-1.8-1-3.9-1-6.3c0-10,6.2-15.5,14.1-15.5c3,0,6.4,0.8,8.9,1.8c3.8,0.2,5.3-4,5.3-6.8
		c-2-1.9-7.2-4.2-14.6-4.2C515.9,40.1,504,51,504,66.7c0,1.6,0.2,3,0.4,4.4C509.1,71.1,513.9,71.1,518.6,71.1"/>
	<path class="st0" d="M565.2,67.4c6,0.2,17.4,0.1,20.1-0.4c4.5-1.1,8.7-2.8,9.2-4.4c0.2-0.9,0.3-2.1,0.3-3.6
		c-0.1-8.9-5.5-18.9-19.3-18.9c-15,0-23.6,12.8-23.6,26.1c0,1.9,0.2,3.7,0.4,5.4c4.6,0.1,9.2,0.2,13.8,0.4
		C565.6,70.6,565.2,69.1,565.2,67.4 M574.4,47.8c5.5,0,7.9,4.4,7.9,9.8c0,1.2-0.7,2.3-1.4,2.3c-2.6,0.2-11.1,0.3-15.6,0
		C565.7,51.6,570.1,47.8,574.4,47.8"/>
	<path class="st0" d="M628.1,67.1v7.7c4.2,0.3,8.5,0.6,12.6,0.9c0.1-6.4,0.4-13.2,0.4-17.1c0-12.1-8-18.6-17.9-18.6
		c-7.4,0-15.2,3.7-19.8,7.1c0,3.3,1.5,7.3,6,5.9c2.5-1.4,6.4-3.2,10.2-3.2c5.5,0,8.7,3.7,8.6,8.4v1.9c-1.3,0.3-3.6,0.7-5.6,1.1
		c-6.7,1.5-17.4,4.1-20.2,12.1c4.2,0.2,8.3,0.4,12.4,0.7C615.8,70.9,619.8,68.2,628.1,67.1"/>
	<path class="st0" d="M670.5,54.2c2.4-2.1,5.1-4.1,9.3-4.1c4.9,0,8.3,3.6,8.3,10v20.2c4.6,0.5,9.1,1.1,13.4,1.7
		c-0.1-2.5-0.1-5.2-0.1-7.9V60.2c0-8.6-2.4-20.1-16.4-20.1c-5.6,0-10.8,3.3-15.4,7.2c-0.5-3.3-2.2-7.2-6.5-7.2
		c-3.3,0-7.1,2.8-8.1,5.6v0.7c1.7,1.1,2,2.8,2,6v18c0,2.3,0,4.5-0.1,6.7c4.6,0.4,9.1,0.8,13.5,1.2L670.5,54.2L670.5,54.2z"/>
	<path class="st0" d="M746.5,74.9c0-4.8-2.1-9-7.7-12.1c-2.4-1.3-6.8-3.3-9-4.5c-2.3-1.3-4.1-2.6-4.1-4.9c0-2.6,2.3-4.4,5.7-4.4
		c2.5,0,5.3,0.8,7.6,1.8c3.7,0.3,5.2-4.1,5-6.9c-3.6-2.7-7.8-3.7-12.3-3.7c-9.6,0-18,5.6-18,15.4c0,5.8,3.3,10,7.7,12.5
		c2.8,1.5,5.7,2.9,8.5,4.4c3.1,1.7,4.3,3.1,4.3,5.1c0,2.8-2.3,4.6-6.4,4.6c-4.5,0-9.2-2-12.4-4.1c-1.4,1.2-2.3,3.4-2.6,5.4
		c9.6,1.4,18.4,3,26.1,4.6C743.3,85.4,746.5,81.1,746.5,74.9"/>
</g>
</svg>
